<svg width="1464" height="183" viewBox="0 0 1464 183" fill="none" xmlns="http://www.w3.org/2000/svg">
<g clip-path="url(#clip0_6_87)">
<path d="M65.208 178.936V125.344L0 4.696H51.216L85.8 87.328H87.384L121.968 4.696H172.656L107.976 124.816V178.936H65.208Z" fill="white"/>
<path d="M231.811 182.632C219.139 182.632 207.699 180.696 197.491 176.824C187.283 172.952 178.483 167.232 171.091 159.664C163.875 152.096 158.331 142.768 154.459 131.68C150.587 120.416 148.651 107.392 148.651 92.608C148.651 71.84 152.259 54.768 159.475 41.392C166.867 27.84 176.987 17.72 189.835 11.032C202.683 4.344 217.203 1 233.395 1C245.891 1 257.243 2.936 267.451 6.808C277.659 10.68 286.371 16.4 293.587 23.968C300.979 31.536 306.611 41.04 310.483 52.48C314.531 63.744 316.555 76.768 316.555 91.552C316.555 106.864 314.443 120.24 310.219 131.68C306.171 142.944 300.363 152.36 292.795 159.928C285.403 167.496 276.515 173.216 266.131 177.088C255.747 180.784 244.307 182.632 231.811 182.632ZM233.131 149.368C241.755 149.368 248.971 147.256 254.779 143.032C260.763 138.632 265.251 132.384 268.243 124.288C271.411 116.016 272.995 105.984 272.995 94.192C272.995 81.696 271.411 71.136 268.243 62.512C265.075 53.712 260.411 47.112 254.251 42.712C248.267 38.136 240.875 35.848 232.075 35.848C223.627 35.848 216.411 38.048 210.427 42.448C204.619 46.672 200.131 53.008 196.963 61.456C193.795 69.728 192.211 79.936 192.211 92.08C192.211 101.232 193.091 109.416 194.851 116.632C196.787 123.672 199.427 129.656 202.771 134.584C206.115 139.336 210.339 143.032 215.443 145.672C220.723 148.136 226.619 149.368 233.131 149.368Z" fill="white"/>
<path d="M398.819 182.632C387.731 182.632 377.875 181.488 369.251 179.2C360.627 177.088 353.147 173.92 346.811 169.696C340.475 165.472 335.195 160.368 330.971 154.384C326.923 148.4 323.843 141.712 321.731 134.32C319.795 126.752 318.827 118.568 318.827 109.768V4.696H361.595V108.448C361.595 116.896 362.915 123.848 365.555 129.304C368.195 134.76 372.243 138.808 377.699 141.448C383.155 143.912 390.107 145.144 398.555 145.144C407.003 145.144 413.955 143.912 419.411 141.448C424.867 138.808 428.915 134.76 431.555 129.304C434.195 123.848 435.515 116.896 435.515 108.448V4.696H478.019V109.768C478.019 132.824 471.419 150.776 458.219 163.624C445.195 176.296 425.395 182.632 398.819 182.632Z" fill="white"/>
<path d="M487.101 178.936V4.696H529.605V80.992C538.229 77.12 546.237 72.28 553.629 66.472C561.021 60.664 567.533 54.328 573.165 47.464C578.973 40.6 583.725 33.56 587.421 26.344C591.293 18.952 594.109 11.736 595.869 4.696H644.973C642.861 12.792 639.429 21.064 634.677 29.512C629.925 37.784 624.205 45.792 617.517 53.536C610.829 61.104 603.613 67.88 595.869 73.864C588.301 79.848 580.557 84.6 572.637 88.12V92.08C580.733 92.08 587.861 92.96 594.021 94.72C600.357 96.48 605.901 99.208 610.653 102.904C615.581 106.6 619.805 111.264 623.325 116.896C627.021 122.352 630.189 128.952 632.829 136.696L647.877 178.936H599.565L589.797 144.352C587.685 136.608 584.869 130.536 581.349 126.136C577.829 121.56 573.165 118.304 567.357 116.368C561.549 114.256 554.069 113.2 544.917 113.2H529.605V178.936H487.101Z" fill="white"/>
<path d="M644.779 178.936V4.696H687.547V178.936H644.779ZM675.667 178.936V144.616H783.115V178.936H675.667ZM675.667 106.6V75.712H769.651V106.6H675.667ZM675.667 38.752V4.696H782.323V38.752H675.667Z" fill="white"/>
<path d="M857.882 182.632C845.21 182.632 833.77 180.696 823.562 176.824C813.354 172.952 804.554 167.232 797.162 159.664C789.946 152.096 784.402 142.768 780.53 131.68C776.658 120.416 774.722 107.392 774.722 92.608C774.722 71.84 778.33 54.768 785.546 41.392C792.938 27.84 803.058 17.72 815.906 11.032C828.754 4.344 843.274 1 859.466 1C871.962 1 883.314 2.936 893.522 6.808C903.73 10.68 912.442 16.4 919.658 23.968C927.05 31.536 932.682 41.04 936.554 52.48C940.602 63.744 942.626 76.768 942.626 91.552C942.626 106.864 940.514 120.24 936.29 131.68C932.242 142.944 926.434 152.36 918.866 159.928C911.474 167.496 902.586 173.216 892.202 177.088C881.818 180.784 870.378 182.632 857.882 182.632ZM859.202 149.368C867.826 149.368 875.042 147.256 880.85 143.032C886.834 138.632 891.322 132.384 894.314 124.288C897.482 116.016 899.066 105.984 899.066 94.192C899.066 81.696 897.482 71.136 894.314 62.512C891.146 53.712 886.482 47.112 880.322 42.712C874.338 38.136 866.946 35.848 858.146 35.848C849.698 35.848 842.482 38.048 836.498 42.448C830.69 46.672 826.202 53.008 823.034 61.456C819.866 69.728 818.282 79.936 818.282 92.08C818.282 101.232 819.162 109.416 820.922 116.632C822.858 123.672 825.498 129.656 828.842 134.584C832.186 139.336 836.41 143.032 841.514 145.672C846.794 148.136 852.69 149.368 859.202 149.368Z" fill="white"/>
<path d="M958.677 182.368C949.525 182.368 942.661 180.432 938.085 176.56C933.685 172.688 931.485 166.704 931.485 158.608C931.485 150.336 933.685 144.264 938.085 140.392C942.661 136.52 949.525 134.584 958.677 134.584C968.005 134.584 974.957 136.52 979.533 140.392C984.109 144.264 986.397 150.336 986.397 158.608C986.397 174.448 977.157 182.368 958.677 182.368Z" fill="white"/>
<path d="M1038.85 179.874C1032.69 179.874 1027.15 178.802 1022.23 176.658C1017.41 174.425 1013.61 171.387 1010.85 167.546C1008.08 163.615 1006.65 159.104 1006.56 154.012H1019.55C1020 158.389 1021.79 162.097 1024.92 165.134C1028.13 168.082 1032.78 169.556 1038.85 169.556C1044.66 169.556 1049.21 168.127 1052.52 165.268C1055.91 162.32 1057.61 158.568 1057.61 154.012C1057.61 150.439 1056.63 147.535 1054.66 145.302C1052.7 143.069 1050.24 141.371 1047.29 140.21C1044.34 139.049 1040.37 137.798 1035.37 136.458C1029.2 134.85 1024.24 133.242 1020.49 131.634C1016.83 130.026 1013.66 127.525 1010.98 124.13C1008.39 120.646 1007.09 116.001 1007.09 110.194C1007.09 105.102 1008.39 100.591 1010.98 96.66C1013.57 92.7293 1017.19 89.692 1021.83 87.548C1026.57 85.404 1031.97 84.332 1038.05 84.332C1046.8 84.332 1053.95 86.5207 1059.49 90.898C1065.12 95.2753 1068.29 101.082 1069 108.318H1055.6C1055.15 104.745 1053.28 101.618 1049.97 98.938C1046.67 96.1687 1042.29 94.784 1036.84 94.784C1031.75 94.784 1027.6 96.124 1024.38 98.804C1021.16 101.395 1019.55 105.057 1019.55 109.792C1019.55 113.187 1020.49 115.956 1022.37 118.1C1024.33 120.244 1026.7 121.897 1029.47 123.058C1032.33 124.13 1036.3 125.381 1041.4 126.81C1047.56 128.507 1052.52 130.205 1056.27 131.902C1060.02 133.51 1063.24 136.056 1065.92 139.54C1068.6 142.935 1069.94 147.58 1069.94 153.476C1069.94 158.032 1068.73 162.32 1066.32 166.34C1063.91 170.36 1060.34 173.621 1055.6 176.122C1050.87 178.623 1045.28 179.874 1038.85 179.874Z" fill="white"/>
<path d="M1131.97 85.538V95.454H1106.51V178.936H1094.32V95.454H1068.72V85.538H1131.97Z" fill="white"/>
<path d="M1145.51 85.538V144.632C1145.51 152.94 1147.52 159.104 1151.54 163.124C1155.64 167.144 1161.32 169.154 1168.55 169.154C1175.7 169.154 1181.28 167.144 1185.3 163.124C1189.41 159.104 1191.47 152.94 1191.47 144.632V85.538H1203.66V144.498C1203.66 152.27 1202.1 158.836 1198.97 164.196C1195.84 169.467 1191.6 173.397 1186.24 175.988C1180.97 178.579 1175.03 179.874 1168.42 179.874C1161.81 179.874 1155.82 178.579 1150.46 175.988C1145.19 173.397 1140.99 169.467 1137.87 164.196C1134.83 158.836 1133.31 152.27 1133.31 144.498V85.538H1145.51Z" fill="white"/>
<path d="M1239.68 85.538C1249.87 85.538 1258.66 87.4587 1266.08 91.3C1273.58 95.052 1279.3 100.457 1283.23 107.514C1287.25 114.571 1289.26 122.879 1289.26 132.438C1289.26 141.997 1287.25 150.305 1283.23 157.362C1279.3 164.33 1273.58 169.69 1266.08 173.442C1258.66 177.105 1249.87 178.936 1239.68 178.936H1210.6V85.538H1239.68ZM1239.68 168.886C1251.74 168.886 1260.94 165.715 1267.29 159.372C1273.63 152.94 1276.8 143.962 1276.8 132.438C1276.8 120.825 1273.58 111.757 1267.15 105.236C1260.81 98.7147 1251.65 95.454 1239.68 95.454H1222.8V168.886H1239.68Z" fill="white"/>
<path d="M1304.14 85.538V178.936H1291.95V85.538H1304.14Z" fill="white"/>
<path d="M1353.87 179.874C1345.2 179.874 1337.29 177.864 1330.15 173.844C1323 169.735 1317.33 164.062 1313.13 156.826C1309.02 149.501 1306.97 141.282 1306.97 132.17C1306.97 123.058 1309.02 114.884 1313.13 107.648C1317.33 100.323 1323 94.65 1330.15 90.63C1337.29 86.5207 1345.2 84.466 1353.87 84.466C1362.62 84.466 1370.57 86.5207 1377.72 90.63C1384.86 94.65 1390.49 100.278 1394.6 107.514C1398.71 114.75 1400.77 122.969 1400.77 132.17C1400.77 141.371 1398.71 149.59 1394.6 156.826C1390.49 164.062 1384.86 169.735 1377.72 173.844C1370.57 177.864 1362.62 179.874 1353.87 179.874ZM1353.87 169.288C1360.39 169.288 1366.24 167.769 1371.42 164.732C1376.69 161.695 1380.8 157.362 1383.75 151.734C1386.79 146.106 1388.3 139.585 1388.3 132.17C1388.3 124.666 1386.79 118.145 1383.75 112.606C1380.8 106.978 1376.74 102.645 1371.55 99.608C1366.37 96.5707 1360.48 95.052 1353.87 95.052C1347.26 95.052 1341.36 96.5707 1336.18 99.608C1331 102.645 1326.89 106.978 1323.85 112.606C1320.9 118.145 1319.43 124.666 1319.43 132.17C1319.43 139.585 1320.9 146.106 1323.85 151.734C1326.89 157.362 1331 161.695 1336.18 164.732C1341.45 167.769 1347.34 169.288 1353.87 169.288Z" fill="white"/>
<path d="M1433.08 179.874C1426.91 179.874 1421.38 178.802 1416.46 176.658C1411.64 174.425 1407.84 171.387 1405.07 167.546C1402.3 163.615 1400.87 159.104 1400.78 154.012H1413.78C1414.23 158.389 1416.02 162.097 1419.14 165.134C1422.36 168.082 1427 169.556 1433.08 169.556C1438.88 169.556 1443.44 168.127 1446.75 165.268C1450.14 162.32 1451.84 158.568 1451.84 154.012C1451.84 150.439 1450.86 147.535 1448.89 145.302C1446.92 143.069 1444.47 141.371 1441.52 140.21C1438.57 139.049 1434.6 137.798 1429.59 136.458C1423.43 134.85 1418.47 133.242 1414.72 131.634C1411.06 130.026 1407.89 127.525 1405.21 124.13C1402.62 120.646 1401.32 116.001 1401.32 110.194C1401.32 105.102 1402.62 100.591 1405.21 96.66C1407.8 92.7293 1411.41 89.692 1416.06 87.548C1420.79 85.404 1426.2 84.332 1432.27 84.332C1441.03 84.332 1448.18 86.5207 1453.71 90.898C1459.34 95.2753 1462.51 101.082 1463.23 108.318H1449.83C1449.38 104.745 1447.51 101.618 1444.2 98.938C1440.89 96.1687 1436.52 94.784 1431.07 94.784C1425.98 94.784 1421.82 96.124 1418.61 98.804C1415.39 101.395 1413.78 105.057 1413.78 109.792C1413.78 113.187 1414.72 115.956 1416.6 118.1C1418.56 120.244 1420.93 121.897 1423.7 123.058C1426.56 124.13 1430.53 125.381 1435.62 126.81C1441.79 128.507 1446.75 130.205 1450.5 131.902C1454.25 133.51 1457.47 136.056 1460.15 139.54C1462.83 142.935 1464.17 147.58 1464.17 153.476C1464.17 158.032 1462.96 162.32 1460.55 166.34C1458.14 170.36 1454.56 173.621 1449.83 176.122C1445.09 178.623 1439.51 179.874 1433.08 179.874Z" fill="white"/>
</g>
<defs>
<clipPath id="clip0_6_87">
<rect width="1464" height="183" fill="white"/>
</clipPath>
</defs>
</svg>
