<svg width="1464" height="182" viewBox="0 0 1464 182" fill="none" xmlns="http://www.w3.org/2000/svg">
<g clip-path="url(#clip0_6_95)">
<path d="M65.208 177.936V124.344L0 3.696H51.216L85.8 86.328H87.384L121.968 3.696H172.656L107.976 123.816V177.936H65.208Z" fill="black"/>
<path d="M231.811 181.632C219.139 181.632 207.699 179.696 197.491 175.824C187.283 171.952 178.483 166.232 171.091 158.664C163.875 151.096 158.331 141.768 154.459 130.68C150.587 119.416 148.651 106.392 148.651 91.608C148.651 70.84 152.259 53.768 159.475 40.392C166.867 26.84 176.987 16.72 189.835 10.032C202.683 3.344 217.203 0 233.395 0C245.891 0 257.243 1.936 267.451 5.808C277.659 9.68 286.371 15.4 293.587 22.968C300.979 30.536 306.611 40.04 310.483 51.48C314.531 62.744 316.555 75.768 316.555 90.552C316.555 105.864 314.443 119.24 310.219 130.68C306.171 141.944 300.363 151.36 292.795 158.928C285.403 166.496 276.515 172.216 266.131 176.088C255.747 179.784 244.307 181.632 231.811 181.632ZM233.131 148.368C241.755 148.368 248.971 146.256 254.779 142.032C260.763 137.632 265.251 131.384 268.243 123.288C271.411 115.016 272.995 104.984 272.995 93.192C272.995 80.696 271.411 70.136 268.243 61.512C265.075 52.712 260.411 46.112 254.251 41.712C248.267 37.136 240.875 34.848 232.075 34.848C223.627 34.848 216.411 37.048 210.427 41.448C204.619 45.672 200.131 52.008 196.963 60.456C193.795 68.728 192.211 78.936 192.211 91.08C192.211 100.232 193.091 108.416 194.851 115.632C196.787 122.672 199.427 128.656 202.771 133.584C206.115 138.336 210.339 142.032 215.443 144.672C220.723 147.136 226.619 148.368 233.131 148.368Z" fill="black"/>
<path d="M398.819 181.632C387.731 181.632 377.875 180.488 369.251 178.2C360.627 176.088 353.147 172.92 346.811 168.696C340.475 164.472 335.195 159.368 330.971 153.384C326.923 147.4 323.843 140.712 321.731 133.32C319.795 125.752 318.827 117.568 318.827 108.768V3.696H361.595V107.448C361.595 115.896 362.915 122.848 365.555 128.304C368.195 133.76 372.243 137.808 377.699 140.448C383.155 142.912 390.107 144.144 398.555 144.144C407.003 144.144 413.955 142.912 419.411 140.448C424.867 137.808 428.915 133.76 431.555 128.304C434.195 122.848 435.515 115.896 435.515 107.448V3.696H478.019V108.768C478.019 131.824 471.419 149.776 458.219 162.624C445.195 175.296 425.395 181.632 398.819 181.632Z" fill="black"/>
<path d="M487.101 177.936V3.696H529.605V79.992C538.229 76.12 546.237 71.28 553.629 65.472C561.021 59.664 567.533 53.328 573.165 46.464C578.973 39.6 583.725 32.56 587.421 25.344C591.293 17.952 594.109 10.736 595.869 3.696H644.973C642.861 11.792 639.429 20.064 634.677 28.512C629.925 36.784 624.205 44.792 617.517 52.536C610.829 60.104 603.613 66.88 595.869 72.864C588.301 78.848 580.557 83.6 572.637 87.12V91.08C580.733 91.08 587.861 91.96 594.021 93.72C600.357 95.48 605.901 98.208 610.653 101.904C615.581 105.6 619.805 110.264 623.325 115.896C627.021 121.352 630.189 127.952 632.829 135.696L647.877 177.936H599.565L589.797 143.352C587.685 135.608 584.869 129.536 581.349 125.136C577.829 120.56 573.165 117.304 567.357 115.368C561.549 113.256 554.069 112.2 544.917 112.2H529.605V177.936H487.101Z" fill="black"/>
<path d="M644.779 177.936V3.696H687.547V177.936H644.779ZM675.667 177.936V143.616H783.115V177.936H675.667ZM675.667 105.6V74.712H769.651V105.6H675.667ZM675.667 37.752V3.696H782.323V37.752H675.667Z" fill="black"/>
<path d="M857.882 181.632C845.21 181.632 833.77 179.696 823.562 175.824C813.354 171.952 804.554 166.232 797.162 158.664C789.946 151.096 784.402 141.768 780.53 130.68C776.658 119.416 774.722 106.392 774.722 91.608C774.722 70.84 778.33 53.768 785.546 40.392C792.938 26.84 803.058 16.72 815.906 10.032C828.754 3.344 843.274 0 859.466 0C871.962 0 883.314 1.936 893.522 5.808C903.73 9.68 912.442 15.4 919.658 22.968C927.05 30.536 932.682 40.04 936.554 51.48C940.602 62.744 942.626 75.768 942.626 90.552C942.626 105.864 940.514 119.24 936.29 130.68C932.242 141.944 926.434 151.36 918.866 158.928C911.474 166.496 902.586 172.216 892.202 176.088C881.818 179.784 870.378 181.632 857.882 181.632ZM859.202 148.368C867.826 148.368 875.042 146.256 880.85 142.032C886.834 137.632 891.322 131.384 894.314 123.288C897.482 115.016 899.066 104.984 899.066 93.192C899.066 80.696 897.482 70.136 894.314 61.512C891.146 52.712 886.482 46.112 880.322 41.712C874.338 37.136 866.946 34.848 858.146 34.848C849.698 34.848 842.482 37.048 836.498 41.448C830.69 45.672 826.202 52.008 823.034 60.456C819.866 68.728 818.282 78.936 818.282 91.08C818.282 100.232 819.162 108.416 820.922 115.632C822.858 122.672 825.498 128.656 828.842 133.584C832.186 138.336 836.41 142.032 841.514 144.672C846.794 147.136 852.69 148.368 859.202 148.368Z" fill="black"/>
<path d="M958.677 181.368C949.525 181.368 942.661 179.432 938.085 175.56C933.685 171.688 931.485 165.704 931.485 157.608C931.485 149.336 933.685 143.264 938.085 139.392C942.661 135.52 949.525 133.584 958.677 133.584C968.005 133.584 974.957 135.52 979.533 139.392C984.109 143.264 986.397 149.336 986.397 157.608C986.397 173.448 977.157 181.368 958.677 181.368Z" fill="#EC0C55"/>
<path d="M1038.85 178.874C1032.69 178.874 1027.15 177.802 1022.24 175.658C1017.41 173.425 1013.61 170.387 1010.85 166.546C1008.08 162.615 1006.65 158.104 1006.56 153.012H1019.56C1020 157.389 1021.79 161.097 1024.92 164.134C1028.13 167.082 1032.78 168.556 1038.85 168.556C1044.66 168.556 1049.21 167.127 1052.52 164.268C1055.91 161.32 1057.61 157.568 1057.61 153.012C1057.61 149.439 1056.63 146.535 1054.66 144.302C1052.7 142.069 1050.24 140.371 1047.29 139.21C1044.35 138.049 1040.37 136.798 1035.37 135.458C1029.2 133.85 1024.25 132.242 1020.49 130.634C1016.83 129.026 1013.66 126.525 1010.98 123.13C1008.39 119.646 1007.09 115.001 1007.09 109.194C1007.09 104.102 1008.39 99.5907 1010.98 95.66C1013.57 91.7293 1017.19 88.692 1021.83 86.548C1026.57 84.404 1031.97 83.332 1038.05 83.332C1046.8 83.332 1053.95 85.5207 1059.49 89.898C1065.12 94.2753 1068.29 100.082 1069 107.318H1055.6C1055.15 103.745 1053.28 100.618 1049.97 97.938C1046.67 95.1687 1042.29 93.784 1036.84 93.784C1031.75 93.784 1027.6 95.124 1024.38 97.804C1021.16 100.395 1019.56 104.057 1019.56 108.792C1019.56 112.187 1020.49 114.956 1022.37 117.1C1024.33 119.244 1026.7 120.897 1029.47 122.058C1032.33 123.13 1036.31 124.381 1041.4 125.81C1047.56 127.507 1052.52 129.205 1056.27 130.902C1060.02 132.51 1063.24 135.056 1065.92 138.54C1068.6 141.935 1069.94 146.58 1069.94 152.476C1069.94 157.032 1068.73 161.32 1066.32 165.34C1063.91 169.36 1060.34 172.621 1055.6 175.122C1050.87 177.623 1045.28 178.874 1038.85 178.874Z" fill="#EC0C55"/>
<path d="M1131.97 84.538V94.454H1106.51V177.936H1094.32V94.454H1068.72V84.538H1131.97Z" fill="#EC0C55"/>
<path d="M1145.51 84.538V143.632C1145.51 151.94 1147.52 158.104 1151.54 162.124C1155.64 166.144 1161.32 168.154 1168.55 168.154C1175.7 168.154 1181.28 166.144 1185.3 162.124C1189.41 158.104 1191.47 151.94 1191.47 143.632V84.538H1203.66V143.498C1203.66 151.27 1202.1 157.836 1198.97 163.196C1195.84 168.467 1191.6 172.397 1186.24 174.988C1180.97 177.579 1175.03 178.874 1168.42 178.874C1161.81 178.874 1155.82 177.579 1150.46 174.988C1145.19 172.397 1140.99 168.467 1137.87 163.196C1134.83 157.836 1133.31 151.27 1133.31 143.498V84.538H1145.51Z" fill="#EC0C55"/>
<path d="M1239.68 84.538C1249.87 84.538 1258.66 86.4587 1266.08 90.3C1273.58 94.052 1279.3 99.4567 1283.23 106.514C1287.25 113.571 1289.26 121.879 1289.26 131.438C1289.26 140.997 1287.25 149.305 1283.23 156.362C1279.3 163.33 1273.58 168.69 1266.08 172.442C1258.66 176.105 1249.87 177.936 1239.68 177.936H1210.6V84.538H1239.68ZM1239.68 167.886C1251.74 167.886 1260.94 164.715 1267.29 158.372C1273.63 151.94 1276.8 142.962 1276.8 131.438C1276.8 119.825 1273.58 110.757 1267.15 104.236C1260.81 97.7147 1251.65 94.454 1239.68 94.454H1222.8V167.886H1239.68Z" fill="#EC0C55"/>
<path d="M1304.14 84.538V177.936H1291.95V84.538H1304.14Z" fill="#EC0C55"/>
<path d="M1353.87 178.874C1345.2 178.874 1337.29 176.864 1330.15 172.844C1323 168.735 1317.33 163.062 1313.13 155.826C1309.02 148.501 1306.97 140.282 1306.97 131.17C1306.97 122.058 1309.02 113.884 1313.13 106.648C1317.33 99.3227 1323 93.65 1330.15 89.63C1337.29 85.5207 1345.2 83.466 1353.87 83.466C1362.62 83.466 1370.57 85.5207 1377.72 89.63C1384.86 93.65 1390.49 99.278 1394.6 106.514C1398.71 113.75 1400.77 121.969 1400.77 131.17C1400.77 140.371 1398.71 148.59 1394.6 155.826C1390.49 163.062 1384.86 168.735 1377.72 172.844C1370.57 176.864 1362.62 178.874 1353.87 178.874ZM1353.87 168.288C1360.39 168.288 1366.24 166.769 1371.42 163.732C1376.69 160.695 1380.8 156.362 1383.75 150.734C1386.79 145.106 1388.3 138.585 1388.3 131.17C1388.3 123.666 1386.79 117.145 1383.75 111.606C1380.8 105.978 1376.74 101.645 1371.55 98.608C1366.37 95.5707 1360.48 94.052 1353.87 94.052C1347.26 94.052 1341.36 95.5707 1336.18 98.608C1331 101.645 1326.89 105.978 1323.85 111.606C1320.9 117.145 1319.43 123.666 1319.43 131.17C1319.43 138.585 1320.9 145.106 1323.85 150.734C1326.89 156.362 1331 160.695 1336.18 163.732C1341.45 166.769 1347.34 168.288 1353.87 168.288Z" fill="#EC0C55"/>
<path d="M1433.08 178.874C1426.91 178.874 1421.38 177.802 1416.46 175.658C1411.64 173.425 1407.84 170.387 1405.07 166.546C1402.3 162.615 1400.87 158.104 1400.78 153.012H1413.78C1414.23 157.389 1416.02 161.097 1419.14 164.134C1422.36 167.082 1427 168.556 1433.08 168.556C1438.88 168.556 1443.44 167.127 1446.75 164.268C1450.14 161.32 1451.84 157.568 1451.84 153.012C1451.84 149.439 1450.86 146.535 1448.89 144.302C1446.92 142.069 1444.47 140.371 1441.52 139.21C1438.57 138.049 1434.6 136.798 1429.59 135.458C1423.43 133.85 1418.47 132.242 1414.72 130.634C1411.06 129.026 1407.89 126.525 1405.21 123.13C1402.62 119.646 1401.32 115.001 1401.32 109.194C1401.32 104.102 1402.62 99.5907 1405.21 95.66C1407.8 91.7293 1411.41 88.692 1416.06 86.548C1420.79 84.404 1426.2 83.332 1432.27 83.332C1441.03 83.332 1448.18 85.5207 1453.71 89.898C1459.34 94.2753 1462.51 100.082 1463.23 107.318H1449.83C1449.38 103.745 1447.51 100.618 1444.2 97.938C1440.89 95.1687 1436.52 93.784 1431.07 93.784C1425.98 93.784 1421.82 95.124 1418.61 97.804C1415.39 100.395 1413.78 104.057 1413.78 108.792C1413.78 112.187 1414.72 114.956 1416.6 117.1C1418.56 119.244 1420.93 120.897 1423.7 122.058C1426.56 123.13 1430.53 124.381 1435.62 125.81C1441.79 127.507 1446.75 129.205 1450.5 130.902C1454.25 132.51 1457.47 135.056 1460.15 138.54C1462.83 141.935 1464.17 146.58 1464.17 152.476C1464.17 157.032 1462.96 161.32 1460.55 165.34C1458.14 169.36 1454.56 172.621 1449.83 175.122C1445.09 177.623 1439.51 178.874 1433.08 178.874Z" fill="#EC0C55"/>
</g>
<defs>
<clipPath id="clip0_6_95">
<rect width="1464" height="182" fill="white"/>
</clipPath>
</defs>
</svg>
