<svg width="240" height="240" viewBox="0 0 240 240" fill="none" xmlns="http://www.w3.org/2000/svg">
<path d="M88.1909 234.403V162.614L1 1H69.4819L115.725 111.689H117.843L164.086 1H231.862L145.377 161.906V234.403H88.1909Z" fill="white"/>
<path d="M202.935 239C190.698 239 181.52 236.407 175.401 231.22C169.518 226.033 166.576 218.017 166.576 207.172C166.576 196.092 169.518 187.958 175.401 182.771C181.52 177.584 190.698 174.991 202.935 174.991C215.408 174.991 224.703 177.584 230.822 182.771C236.941 187.958 240 196.092 240 207.172C240 228.391 227.645 239 202.935 239Z" fill="white"/>
</svg>
