<svg width="996" height="281" viewBox="0 0 996 281" fill="none" xmlns="http://www.w3.org/2000/svg">
<path d="M65.208 177.936V124.344L0 3.696H51.216L85.8 86.328H87.384L121.968 3.696H172.656L107.976 123.816V177.936H65.208Z" fill="black"/>
<path d="M231.811 181.632C219.139 181.632 207.699 179.696 197.491 175.824C187.283 171.952 178.483 166.232 171.091 158.664C163.875 151.096 158.331 141.768 154.459 130.68C150.587 119.416 148.651 106.392 148.651 91.608C148.651 70.84 152.259 53.768 159.475 40.392C166.867 26.84 176.987 16.72 189.835 10.032C202.683 3.344 217.203 0 233.395 0C245.891 0 257.243 1.936 267.451 5.808C277.659 9.68 286.371 15.4 293.587 22.968C300.979 30.536 306.611 40.04 310.483 51.48C314.531 62.744 316.555 75.768 316.555 90.552C316.555 105.864 314.443 119.24 310.219 130.68C306.171 141.944 300.363 151.36 292.795 158.928C285.403 166.496 276.515 172.216 266.131 176.088C255.747 179.784 244.307 181.632 231.811 181.632ZM233.131 148.368C241.755 148.368 248.971 146.256 254.779 142.032C260.763 137.632 265.251 131.384 268.243 123.288C271.411 115.016 272.995 104.984 272.995 93.192C272.995 80.696 271.411 70.136 268.243 61.512C265.075 52.712 260.411 46.112 254.251 41.712C248.267 37.136 240.875 34.848 232.075 34.848C223.627 34.848 216.411 37.048 210.427 41.448C204.619 45.672 200.131 52.008 196.963 60.456C193.795 68.728 192.211 78.936 192.211 91.08C192.211 100.232 193.091 108.416 194.851 115.632C196.787 122.672 199.427 128.656 202.771 133.584C206.115 138.336 210.339 142.032 215.443 144.672C220.723 147.136 226.619 148.368 233.131 148.368Z" fill="black"/>
<path d="M398.819 181.632C387.731 181.632 377.875 180.488 369.251 178.2C360.627 176.088 353.147 172.92 346.811 168.696C340.475 164.472 335.195 159.368 330.971 153.384C326.923 147.4 323.843 140.712 321.731 133.32C319.795 125.752 318.827 117.568 318.827 108.768V3.696H361.595V107.448C361.595 115.896 362.915 122.848 365.555 128.304C368.195 133.76 372.243 137.808 377.699 140.448C383.155 142.912 390.107 144.144 398.555 144.144C407.003 144.144 413.955 142.912 419.411 140.448C424.867 137.808 428.915 133.76 431.555 128.304C434.195 122.848 435.515 115.896 435.515 107.448V3.696H478.019V108.768C478.019 131.824 471.419 149.776 458.219 162.624C445.195 175.296 425.395 181.632 398.819 181.632Z" fill="black"/>
<path d="M487.101 177.936V3.696H529.605V79.992C538.229 76.12 546.237 71.28 553.629 65.472C561.021 59.664 567.533 53.328 573.165 46.464C578.973 39.6 583.725 32.56 587.421 25.344C591.293 17.952 594.109 10.736 595.869 3.696H644.973C642.861 11.792 639.429 20.064 634.677 28.512C629.925 36.784 624.205 44.792 617.517 52.536C610.829 60.104 603.613 66.88 595.869 72.864C588.301 78.848 580.557 83.6 572.637 87.12V91.08C580.733 91.08 587.861 91.96 594.021 93.72C600.357 95.48 605.901 98.208 610.653 101.904C615.581 105.6 619.805 110.264 623.325 115.896C627.021 121.352 630.189 127.952 632.829 135.696L647.877 177.936H599.565L589.797 143.352C587.685 135.608 584.869 129.536 581.349 125.136C577.829 120.56 573.165 117.304 567.357 115.368C561.549 113.256 554.069 112.2 544.917 112.2H529.605V177.936H487.101Z" fill="black"/>
<path d="M644.779 177.936V3.696H687.547V177.936H644.779ZM675.667 177.936V143.616H783.115V177.936H675.667ZM675.667 105.6V74.712H769.651V105.6H675.667ZM675.667 37.752V3.696H782.323V37.752H675.667Z" fill="black"/>
<path d="M857.882 181.632C845.21 181.632 833.77 179.696 823.562 175.824C813.354 171.952 804.554 166.232 797.162 158.664C789.946 151.096 784.402 141.768 780.53 130.68C776.658 119.416 774.722 106.392 774.722 91.608C774.722 70.84 778.33 53.768 785.546 40.392C792.938 26.84 803.058 16.72 815.906 10.032C828.754 3.344 843.274 0 859.466 0C871.962 0 883.314 1.936 893.522 5.808C903.73 9.68 912.442 15.4 919.658 22.968C927.05 30.536 932.682 40.04 936.554 51.48C940.602 62.744 942.626 75.768 942.626 90.552C942.626 105.864 940.514 119.24 936.29 130.68C932.242 141.944 926.434 151.36 918.866 158.928C911.474 166.496 902.586 172.216 892.202 176.088C881.818 179.784 870.378 181.632 857.882 181.632ZM859.202 148.368C867.826 148.368 875.042 146.256 880.85 142.032C886.834 137.632 891.322 131.384 894.314 123.288C897.482 115.016 899.066 104.984 899.066 93.192C899.066 80.696 897.482 70.136 894.314 61.512C891.146 52.712 886.482 46.112 880.322 41.712C874.338 37.136 866.946 34.848 858.146 34.848C849.698 34.848 842.482 37.048 836.498 41.448C830.69 45.672 826.202 52.008 823.034 60.456C819.866 68.728 818.282 78.936 818.282 91.08C818.282 100.232 819.162 108.416 820.922 115.632C822.858 122.672 825.498 128.656 828.842 133.584C832.186 138.336 836.41 142.032 841.514 144.672C846.794 147.136 852.69 148.368 859.202 148.368Z" fill="black"/>
<path d="M958.677 181.368C949.525 181.368 942.661 179.432 938.085 175.56C933.685 171.688 931.485 165.704 931.485 157.608C931.485 149.336 933.685 143.264 938.085 139.392C942.661 135.52 949.525 133.584 958.677 133.584C968.005 133.584 974.957 135.52 979.533 139.392C984.109 143.264 986.397 149.336 986.397 157.608C986.397 173.448 977.157 181.368 958.677 181.368Z" fill="black"/>
<path d="M559.851 280.874C553.687 280.874 548.148 279.802 543.235 277.658C538.411 275.425 534.614 272.387 531.845 268.546C529.076 264.615 527.646 260.104 527.557 255.012H540.555C541.002 259.389 542.788 263.097 545.915 266.134C549.131 269.082 553.776 270.556 559.851 270.556C565.658 270.556 570.214 269.127 573.519 266.268C576.914 263.32 578.611 259.568 578.611 255.012C578.611 251.439 577.628 248.535 575.663 246.302C573.698 244.069 571.241 242.371 568.293 241.21C565.345 240.049 561.37 238.798 556.367 237.458C550.203 235.85 545.245 234.242 541.493 232.634C537.83 231.026 534.659 228.525 531.979 225.13C529.388 221.646 528.093 217.001 528.093 211.194C528.093 206.102 529.388 201.591 531.979 197.66C534.57 193.729 538.188 190.692 542.833 188.548C547.568 186.404 552.972 185.332 559.047 185.332C567.802 185.332 574.948 187.521 580.487 191.898C586.115 196.275 589.286 202.082 590.001 209.318H576.601C576.154 205.745 574.278 202.618 570.973 199.938C567.668 197.169 563.29 195.784 557.841 195.784C552.749 195.784 548.595 197.124 545.379 199.804C542.163 202.395 540.555 206.057 540.555 210.792C540.555 214.187 541.493 216.956 543.369 219.1C545.334 221.244 547.702 222.897 550.471 224.058C553.33 225.13 557.305 226.381 562.397 227.81C568.561 229.507 573.519 231.205 577.271 232.902C581.023 234.51 584.239 237.056 586.919 240.54C589.599 243.935 590.939 248.58 590.939 254.476C590.939 259.032 589.733 263.32 587.321 267.34C584.909 271.36 581.336 274.621 576.601 277.122C571.866 279.623 566.283 280.874 559.851 280.874Z" fill="black"/>
<path d="M652.969 186.538V196.454H627.509V279.936H615.315V196.454H589.721V186.538H652.969Z" fill="black"/>
<path d="M666.506 186.538V245.632C666.506 253.94 668.516 260.104 672.536 264.124C676.645 268.144 682.318 270.154 689.554 270.154C696.7 270.154 702.284 268.144 706.304 264.124C710.413 260.104 712.468 253.94 712.468 245.632V186.538H724.662V245.498C724.662 253.27 723.098 259.836 719.972 265.196C716.845 270.467 712.602 274.397 707.242 276.988C701.971 279.579 696.03 280.874 689.42 280.874C682.809 280.874 676.824 279.579 671.464 276.988C666.193 274.397 661.994 270.467 658.868 265.196C655.83 259.836 654.312 253.27 654.312 245.498V186.538H666.506Z" fill="black"/>
<path d="M760.681 186.538C770.865 186.538 779.665 188.459 787.079 192.3C794.583 196.052 800.301 201.457 804.231 208.514C808.251 215.571 810.261 223.879 810.261 233.438C810.261 242.997 808.251 251.305 804.231 258.362C800.301 265.33 794.583 270.69 787.079 274.442C779.665 278.105 770.865 279.936 760.681 279.936H731.603V186.538H760.681ZM760.681 269.886C772.741 269.886 781.943 266.715 788.285 260.372C794.628 253.94 797.799 244.962 797.799 233.438C797.799 221.825 794.583 212.757 788.151 206.236C781.809 199.715 772.652 196.454 760.681 196.454H743.797V269.886H760.681Z" fill="black"/>
<path d="M825.14 186.538V279.936H812.946V186.538H825.14Z" fill="black"/>
<path d="M874.866 280.874C866.201 280.874 858.295 278.864 851.148 274.844C844.002 270.735 838.329 265.062 834.13 257.826C830.021 250.501 827.966 242.282 827.966 233.17C827.966 224.058 830.021 215.884 834.13 208.648C838.329 201.323 844.002 195.65 851.148 191.63C858.295 187.521 866.201 185.466 874.866 185.466C883.621 185.466 891.571 187.521 898.718 191.63C905.865 195.65 911.493 201.278 915.602 208.514C919.712 215.75 921.766 223.969 921.766 233.17C921.766 242.371 919.712 250.59 915.602 257.826C911.493 265.062 905.865 270.735 898.718 274.844C891.571 278.864 883.621 280.874 874.866 280.874ZM874.866 270.288C881.387 270.288 887.239 268.769 892.42 265.732C897.691 262.695 901.8 258.362 904.748 252.734C907.786 247.106 909.304 240.585 909.304 233.17C909.304 225.666 907.786 219.145 904.748 213.606C901.8 207.978 897.735 203.645 892.554 200.608C887.373 197.571 881.477 196.052 874.866 196.052C868.255 196.052 862.359 197.571 857.178 200.608C851.997 203.645 847.887 207.978 844.85 213.606C841.902 219.145 840.428 225.666 840.428 233.17C840.428 240.585 841.902 247.106 844.85 252.734C847.887 258.362 851.997 262.695 857.178 265.732C862.449 268.769 868.345 270.288 874.866 270.288Z" fill="black"/>
<path d="M954.078 280.874C947.914 280.874 942.375 279.802 937.462 277.658C932.638 275.425 928.841 272.387 926.072 268.546C923.303 264.615 921.873 260.104 921.784 255.012H934.782C935.229 259.389 937.015 263.097 940.142 266.134C943.358 269.082 948.003 270.556 954.078 270.556C959.885 270.556 964.441 269.127 967.746 266.268C971.141 263.32 972.838 259.568 972.838 255.012C972.838 251.439 971.855 248.535 969.89 246.302C967.925 244.069 965.468 242.371 962.52 241.21C959.572 240.049 955.597 238.798 950.594 237.458C944.43 235.85 939.472 234.242 935.72 232.634C932.057 231.026 928.886 228.525 926.206 225.13C923.615 221.646 922.32 217.001 922.32 211.194C922.32 206.102 923.615 201.591 926.206 197.66C928.797 193.729 932.415 190.692 937.06 188.548C941.795 186.404 947.199 185.332 953.274 185.332C962.029 185.332 969.175 187.521 974.714 191.898C980.342 196.275 983.513 202.082 984.228 209.318H970.828C970.381 205.745 968.505 202.618 965.2 199.938C961.895 197.169 957.517 195.784 952.068 195.784C946.976 195.784 942.822 197.124 939.606 199.804C936.39 202.395 934.782 206.057 934.782 210.792C934.782 214.187 935.72 216.956 937.596 219.1C939.561 221.244 941.929 222.897 944.698 224.058C947.557 225.13 951.532 226.381 956.624 227.81C962.788 229.507 967.746 231.205 971.498 232.902C975.25 234.51 978.466 237.056 981.146 240.54C983.826 243.935 985.166 248.58 985.166 254.476C985.166 259.032 983.96 263.32 981.548 267.34C979.136 271.36 975.563 274.621 970.828 277.122C966.093 279.623 960.51 280.874 954.078 280.874Z" fill="black"/>
</svg>
