<svg width="986" height="182" viewBox="0 0 986 182" fill="none" xmlns="http://www.w3.org/2000/svg">
<g clip-path="url(#clip0_6_101)">
<path d="M65.208 177.936V124.344L0 3.696H51.216L85.8 86.328H87.384L121.968 3.696H172.656L107.976 123.816V177.936H65.208Z" fill="white"/>
<path d="M231.811 181.632C219.139 181.632 207.699 179.696 197.491 175.824C187.283 171.952 178.483 166.232 171.091 158.664C163.875 151.096 158.331 141.768 154.459 130.68C150.587 119.416 148.651 106.392 148.651 91.608C148.651 70.84 152.259 53.768 159.475 40.392C166.867 26.84 176.987 16.72 189.835 10.032C202.683 3.344 217.203 0 233.395 0C245.891 0 257.243 1.936 267.451 5.808C277.659 9.68 286.371 15.4 293.587 22.968C300.979 30.536 306.611 40.04 310.483 51.48C314.531 62.744 316.555 75.768 316.555 90.552C316.555 105.864 314.443 119.24 310.219 130.68C306.171 141.944 300.363 151.36 292.795 158.928C285.403 166.496 276.515 172.216 266.131 176.088C255.747 179.784 244.307 181.632 231.811 181.632ZM233.131 148.368C241.755 148.368 248.971 146.256 254.779 142.032C260.763 137.632 265.251 131.384 268.243 123.288C271.411 115.016 272.995 104.984 272.995 93.192C272.995 80.696 271.411 70.136 268.243 61.512C265.075 52.712 260.411 46.112 254.251 41.712C248.267 37.136 240.875 34.848 232.075 34.848C223.627 34.848 216.411 37.048 210.427 41.448C204.619 45.672 200.131 52.008 196.963 60.456C193.795 68.728 192.211 78.936 192.211 91.08C192.211 100.232 193.091 108.416 194.851 115.632C196.787 122.672 199.427 128.656 202.771 133.584C206.115 138.336 210.339 142.032 215.443 144.672C220.723 147.136 226.619 148.368 233.131 148.368Z" fill="white"/>
<path d="M398.819 181.632C387.731 181.632 377.875 180.488 369.251 178.2C360.627 176.088 353.147 172.92 346.811 168.696C340.475 164.472 335.195 159.368 330.971 153.384C326.923 147.4 323.843 140.712 321.731 133.32C319.795 125.752 318.827 117.568 318.827 108.768V3.696H361.595V107.448C361.595 115.896 362.915 122.848 365.555 128.304C368.195 133.76 372.243 137.808 377.699 140.448C383.155 142.912 390.107 144.144 398.555 144.144C407.003 144.144 413.955 142.912 419.411 140.448C424.867 137.808 428.915 133.76 431.555 128.304C434.195 122.848 435.515 115.896 435.515 107.448V3.696H478.019V108.768C478.019 131.824 471.419 149.776 458.219 162.624C445.195 175.296 425.395 181.632 398.819 181.632Z" fill="white"/>
<path d="M487.101 177.936V3.696H529.605V79.992C538.229 76.12 546.237 71.28 553.629 65.472C561.021 59.664 567.533 53.328 573.165 46.464C578.973 39.6 583.725 32.56 587.421 25.344C591.293 17.952 594.109 10.736 595.869 3.696H644.973C642.861 11.792 639.429 20.064 634.677 28.512C629.925 36.784 624.205 44.792 617.517 52.536C610.829 60.104 603.613 66.88 595.869 72.864C588.301 78.848 580.557 83.6 572.637 87.12V91.08C580.733 91.08 587.861 91.96 594.021 93.72C600.357 95.48 605.901 98.208 610.653 101.904C615.581 105.6 619.805 110.264 623.325 115.896C627.021 121.352 630.189 127.952 632.829 135.696L647.877 177.936H599.565L589.797 143.352C587.685 135.608 584.869 129.536 581.349 125.136C577.829 120.56 573.165 117.304 567.357 115.368C561.549 113.256 554.069 112.2 544.917 112.2H529.605V177.936H487.101Z" fill="white"/>
<path d="M644.779 177.936V3.696H687.547V177.936H644.779ZM675.667 177.936V143.616H783.115V177.936H675.667ZM675.667 105.6V74.712H769.651V105.6H675.667ZM675.667 37.752V3.696H782.323V37.752H675.667Z" fill="white"/>
<path d="M857.882 181.632C845.21 181.632 833.77 179.696 823.562 175.824C813.354 171.952 804.554 166.232 797.162 158.664C789.946 151.096 784.402 141.768 780.53 130.68C776.658 119.416 774.722 106.392 774.722 91.608C774.722 70.84 778.33 53.768 785.546 40.392C792.938 26.84 803.058 16.72 815.906 10.032C828.754 3.344 843.274 0 859.466 0C871.962 0 883.314 1.936 893.522 5.808C903.73 9.68 912.442 15.4 919.658 22.968C927.05 30.536 932.682 40.04 936.554 51.48C940.602 62.744 942.626 75.768 942.626 90.552C942.626 105.864 940.514 119.24 936.29 130.68C932.242 141.944 926.434 151.36 918.866 158.928C911.474 166.496 902.586 172.216 892.202 176.088C881.818 179.784 870.378 181.632 857.882 181.632ZM859.202 148.368C867.826 148.368 875.042 146.256 880.85 142.032C886.834 137.632 891.322 131.384 894.314 123.288C897.482 115.016 899.066 104.984 899.066 93.192C899.066 80.696 897.482 70.136 894.314 61.512C891.146 52.712 886.482 46.112 880.322 41.712C874.338 37.136 866.946 34.848 858.146 34.848C849.698 34.848 842.482 37.048 836.498 41.448C830.69 45.672 826.202 52.008 823.034 60.456C819.866 68.728 818.282 78.936 818.282 91.08C818.282 100.232 819.162 108.416 820.922 115.632C822.858 122.672 825.498 128.656 828.842 133.584C832.186 138.336 836.41 142.032 841.514 144.672C846.794 147.136 852.69 148.368 859.202 148.368Z" fill="white"/>
<path d="M958.677 181.368C949.525 181.368 942.661 179.432 938.085 175.56C933.685 171.688 931.485 165.704 931.485 157.608C931.485 149.336 933.685 143.264 938.085 139.392C942.661 135.52 949.525 133.584 958.677 133.584C968.005 133.584 974.957 135.52 979.533 139.392C984.109 143.264 986.397 149.336 986.397 157.608C986.397 173.448 977.157 181.368 958.677 181.368Z" fill="white"/>
</g>
<defs>
<clipPath id="clip0_6_101">
<rect width="986" height="182" fill="white"/>
</clipPath>
</defs>
</svg>
